<?xml version="1.0" encoding="utf-8"?>
<!-- Generator: Adobe Illustrator 26.2.1, SVG Export Plug-In . SVG Version: 6.00 Build 0)  -->
<svg version="1.0" id="Layer_1" xmlns="http://www.w3.org/2000/svg" xmlns:xlink="http://www.w3.org/1999/xlink" x="0px" y="0px"
	 viewBox="0 0 16 16" enable-background="new 0 0 16 16" xml:space="preserve">
<path fill="#00389B" d="M8.4,0.7L10.5,5c0.1,0.1,0.2,0.2,0.3,0.2l4.7,0.7C15.9,6,16,6.4,15.7,6.7L12.3,10c-0.1,0.1-0.2,0.3-0.1,0.4
	L13,15c0.1,0.4-0.3,0.6-0.7,0.5l-4.2-2.2c-0.1-0.1-0.3-0.1-0.4,0l-4.2,2.2C3.3,15.6,2.9,15.3,3,15l0.8-4.6c0-0.1,0-0.3-0.1-0.4
	L0.3,6.7C0,6.4,0.1,5.9,0.5,5.9l4.7-0.7c0.1,0,0.3-0.1,0.3-0.2l2.1-4.2C7.8,0.4,8.2,0.4,8.4,0.7z"/>
</svg>
