<?xml version="1.0" encoding="utf-8"?>
<!-- Generator: Adobe Illustrator 26.2.1, SVG Export Plug-In . SVG Version: 6.00 Build 0)  -->
<svg version="1.1" id="Layer_1" xmlns="http://www.w3.org/2000/svg" xmlns:xlink="http://www.w3.org/1999/xlink" x="0px" y="0px"
	 viewBox="0 0 313 44" style="enable-background:new 0 0 313 44;" xml:space="preserve">
<style type="text/css">
	.st0{fill:#68E028;}
	.st1{fill:#0054FF;}
	.st2{fill:#FFFFFF;}
</style>
<g>
	<g transform="matrix(1, 0, 0, 1, 0, 0)">
		<path id="Path_29-2" class="st0" d="M14.3,0.3l33.3,43.3h18.4L33.1,0.3H14.3z"/>
	</g>
	<g transform="matrix(1, 0, 0, 1, 0, 0)">
		<path id="Path_30-2" class="st0" d="M280.1,0.3l-32.8,43.3h18.4l33.3-43.3H280.1z"/>
	</g>
	<g transform="matrix(1, 0, 0, 1, 0, 0)">
		<path id="Path_31-2" class="st1" d="M302.1,0.3l-32.8,43.3h10.2l33.3-43.3H302.1z"/>
	</g>
	<g transform="matrix(1, 0, 0, 1, 0, 0)">
		<path id="Path_32-2" class="st2" d="M37.3,0.3l32.8,43.3h173.3l33.3-43.3H37.3z"/>
	</g>
	<g transform="matrix(1, 0, 0, 1, 0, 0)">
		<path id="Path_33-2" class="st1" d="M0.3,0.3l33.3,43.3h10.2L10.9,0.3H0.3z"/>
	</g>
</g>
</svg>
