<?xml version="1.0" encoding="utf-8"?>
<!-- Generator: Adobe Illustrator 26.3.1, SVG Export Plug-In . SVG Version: 6.00 Build 0)  -->
<svg version="1.1" id="Layer_1" xmlns="http://www.w3.org/2000/svg" xmlns:xlink="http://www.w3.org/1999/xlink" x="0px" y="0px"
	 viewBox="0 0 142 29" style="enable-background:new 0 0 142 29;" xml:space="preserve">
<style type="text/css">
	.st0{fill:#68E028;}
	.st1{fill:#8FE85B;}
	.st2{fill:#FFA200;}
	.st3{fill:#FFB43B;}
	.st4{fill:#0A49C6;}
	.st5{fill:#0054FF;}
	.st6{fill:none;}
</style>
<g>
	<path id="Path_47" class="st0" d="M22,5h-6.1l-2.6,18.7h4.1l0.9-6.8h0.5l1.6,6.8h4.5l-2-7.1c1.6-0.5,2.5-1.9,2.8-4.1L26.2,9
		c0.3-1.1,0-2.3-0.8-3.1C24.3,5.3,23.2,4.9,22,5 M22,9.5l-0.4,3.1c0,0.3-0.1,0.7-0.4,0.9s-0.6,0.3-0.9,0.3h-1.6l0.7-5.3H21
		c0.3,0,0.6,0,0.8,0.2C22,8.9,22.1,9.2,22,9.5 M8.7,5H2.6L0,23.7h4.1l0.7-5.4h2c1.3,0.1,2.5-0.3,3.6-1.1c1-0.8,1.6-1.9,1.7-3.1
		l0.7-5C13.1,8,12.8,6.9,12,6C11.1,5.3,9.9,4.9,8.7,5 M8.2,13.7c0,0.7-0.6,1.2-1.2,1.1H6.9H5.3l0.9-6.3h1.5c0.8,0,1.1,0.4,1,1.1
		L8.2,13.7z M27.2,23.8h9.5l0.5-3.5h-5.4l0.6-4.2H37l0.5-3.5h-4.7l0.5-4h5.4L39.2,5h-9.5L27.2,23.8z M58.5,9.9c0-0.4,0.2-0.7,0.5-1
		c0.5-0.3,1-0.4,1.5-0.3c1.3,0,2.5,0.2,3.7,0.7l0.5-3.9c-1.3-0.4-2.7-0.6-4-0.6c-1.5-0.1-3.1,0.3-4.4,1.2c-1.1,0.8-1.8,2-1.9,3.3
		L54.2,11c-0.3,1.7,0.5,3.3,2.1,4.1l2.7,1.6c0.3,0.2,0.6,0.4,0.9,0.7c0.1,0.2,0.2,0.5,0.1,1.3s-1.7,2.8-6.6,1.4L53,23.6
		c0.9,0.4,6.3,0.9,8.9-1c1.1-0.8,1.9-2,2.1-3.4l0.2-1.7c0.3-1.5-0.4-2.9-1.7-3.6l-2.9-1.7c-0.4-0.2-0.7-0.5-1-0.8
		c-0.2-0.4-0.2-0.7-0.1-1.1L58.5,9.9z M43.3,6.1c-1.1,0.8-1.8,2-1.9,3.3l-0.2,1.7c-0.3,1.7,0.5,3.3,2.1,4.1l2.7,1.6
		c0.3,0.2,0.6,0.4,0.9,0.7c0.1,0.2,0.2,0.5,0.1,1.3s-1.7,2.8-6.6,1.4L40,23.7c0.9,0.4,6.3,0.9,8.9-1c1.1-0.8,1.9-2,2.1-3.4l0.2-1.7
		c0.3-1.5-0.4-2.9-1.7-3.7l-2.8-1.7c-0.4-0.2-0.7-0.5-1-0.8c-0.2-0.4-0.2-0.7-0.1-1.1l0.1-0.4c0-0.4,0.2-0.7,0.5-1
		c0.5-0.3,1-0.4,1.5-0.3c1.3,0,2.5,0.2,3.7,0.7l0.5-3.9c-1.3-0.4-2.7-0.6-4-0.6C46.1,4.8,44.6,5.2,43.3,6.1"/>
	<path id="Path_48" class="st1" d="M43.3,6.1c-1.1,0.8-1.8,2-1.9,3.3l-0.2,1.7c0,0.3,0,0.7,0,1l4.3-1.2c0-0.2,0-0.4,0-0.6l0.1-0.4
		c0-0.4,0.2-0.7,0.5-1c0.5-0.3,1-0.4,1.5-0.3c1.2,0,2.4,0.2,3.6,0.7h0.1l0.5-3.8c-1.3-0.4-2.7-0.6-4-0.6C46.1,4.8,44.6,5.2,43.3,6.1
		 M28.3,15.7l9.1-2.6l0.1-0.7h-4.7l0.5-4h5.4L39.2,5h-9.5L28.3,15.7z M8.7,5H2.6L0,23.7l4.2-1.2l0.6-4.2h2c1.3,0.1,2.5-0.3,3.6-1.1
		c1-0.8,1.6-1.9,1.7-3.1l0.7-5C13.1,8,12.8,6.9,12,6C11.1,5.3,9.9,4.9,8.7,5 M8.2,13.7c0,0.7-0.6,1.2-1.2,1.1H6.9H5.3l0.9-6.3h1.5
		c0.8,0,1.1,0.4,1,1.1L8.2,13.7z M60.7,4.9c-1.5-0.1-3.1,0.3-4.4,1.2c-0.8,0.6-1.3,1.3-1.6,2.2l10-2.8C63.4,5,62.1,4.8,60.7,4.9
		 M22,5h-6.1l-2,14.8l4.2-1.2l0.2-1.6h0.5l0.3,1.3l3.9-1.1l-0.2-0.6c1.6-0.5,2.5-1.9,2.8-4.1L26.1,9c0.3-1.1,0-2.3-0.8-3.1
		C24.3,5.3,23.2,4.9,22,5 M22,9.5l-0.4,3.1c0,0.3-0.1,0.7-0.4,0.9s-0.6,0.3-0.9,0.3h-1.6l0.7-5.3H21c0.3,0,0.6,0,0.8,0.2
		C22,8.9,22.1,9.2,22,9.5"/>
	<path id="Path_49" class="st2" d="M90.3,5h-6.1l-2.6,18.7h4.1l0.7-5.4h2c1.3,0.1,2.5-0.3,3.6-1.1c1-0.8,1.6-1.9,1.7-3.1l0.7-5
		c0.3-1.1,0-2.3-0.8-3.1C92.7,5.3,91.5,4.9,90.3,5 M89.7,13.7c0,0.7-0.6,1.2-1.2,1.1h-0.1h-1.5l0.9-6.3h1.5c0.8,0,1.1,0.4,1,1.1
		L89.7,13.7z M101.2,5H97l-2.6,18.7h9.1l0.5-3.4h-5L101.2,5z M111.8,5l-6.3,18.7h3.9l1.3-4.3h3.7l0.2,4.3h3.9l-1-18.7H111.8z
		 M111.8,16l2.2-7.2l0.3,7.2H111.8z M128.9,5l-1.3,2.8c-1,2.2-1.8,4.2-2.4,5.9c-0.1-2-0.3-4-0.7-5.9L124.1,5h-4.2l2.7,12.9l-0.8,5.8
		h4.1l0.8-5.8L132.9,5H128.9z"/>
	<path id="Path_50" class="st3" d="M83.6,23.7h2l0.1-0.9L83.6,23.7z M128.7,5.4l-1,2.3c-1,2.2-1.8,4.2-2.4,5.9c-0.1-2-0.3-4-0.7-5.9
		L124.5,7l-3.8,1.5l1.9,9.2l-0.8,5.8h4.1l0.8-5.8L132.9,5h-3.2L128.7,5.4z M114.1,11.3l0.2,4.6h-2.5l1.3-4.2l-4.1,1.7l-3.4,10.3h3.9
		l1.3-4.3h3.7l0.2,4.3h3.9l-0.8-13.8L114.1,11.3z M95.1,19.1l-0.6,4.7h9.1l0.5-3.4h-5l0.4-3L95.1,19.1z"/>
	<path id="Path_51" class="st4" d="M111.8,16h2.5L114,8.7L111.8,16z M89.3,8.5h-1.5l-0.9,6.3h1.5c0.7,0.1,1.2-0.4,1.3-1v-0.1l0.6-4
		C90.4,8.9,90,8.5,89.3,8.5 M74.1,0l-3.4,29h67.9l1.7-14.2L142,0H74.1z M94.4,9.1l-0.7,5c-0.1,1.2-0.7,2.4-1.7,3.1s-2.3,1.1-3.6,1.1
		h-2l-0.7,5.4h-4.1L84.2,5h6.1c1.2-0.1,2.4,0.3,3.3,1.1C94.3,6.9,94.7,8,94.4,9.1 M103.6,23.7h-9.1L97,5h4.1L99,20.3h5L103.6,23.7z
		 M114.6,23.7l-0.2-4.3h-3.7l-1.3,4.3h-3.9L111.8,5h5.7l1,18.7H114.6z M126.7,17.9l-0.8,5.8h-4.1l0.8-5.8L119.9,5h4.2l0.5,2.8
		c0.4,1.9,0.6,3.9,0.7,5.9c0.6-1.7,1.4-3.7,2.4-5.9L129,5h4.1L126.7,17.9z"/>
	<path id="Path_52" class="st5" d="M125.3,13.7c0.6-1.7,1.4-3.7,2.4-5.9l1-2.3l-4.2,1.7l0.1,0.7C124.9,9.8,125.2,11.7,125.3,13.7
		 M129.8,5h3.2l-6.2,12.9l-0.8,5.8h-4.1l0.8-5.8l-1.9-9.2l-3,1.2l0.8,13.8h-3.9l-0.2-4.3h-3.7l-1.3,4.3h-3.9l3.4-10.3l-9.5,3.9
		l-0.4,3h5l-0.5,3.4h-9.1l0.6-4.7l-9.3,3.8l-0.1,0.9h-2l-13,5.3h67.9l1.7-14.2L142,0L129.8,5z M114.1,11.3l-1.1,0.4l-1.3,4.2h2.5
		L114.1,11.3z"/>
	<rect id="Rectangle_12" class="st6" width="142" height="29"/>
</g>
</svg>
