<?xml version="1.0" encoding="utf-8"?>
<!-- Generator: Adobe Illustrator 26.2.1, SVG Export Plug-In . SVG Version: 6.00 Build 0)  -->
<svg version="1.0" id="Layer_1" xmlns="http://www.w3.org/2000/svg" xmlns:xlink="http://www.w3.org/1999/xlink" x="0px" y="0px"
	 viewBox="0 0 87 20" enable-background="new 0 0 87 20" xml:space="preserve">
<g>
	<path fill="#00389B" d="M18.8,3.1c-1.3,0-2.4,0.3-3.1,0.9c-0.8,0.6-1.2,1.5-1.3,2.5l-0.7,5.8l-0.1,1.1c-0.1,1.1,0.1,1.9,0.7,2.5
		c0.6,0.6,1.6,0.9,2.9,0.9s2.4-0.3,3.1-0.9c0.8-0.6,1.2-1.5,1.3-2.5L22,9.6l0.4-3.1c0.1-1.1-0.1-1.9-0.7-2.5
		C21.1,3.4,20.1,3.1,18.8,3.1z M19.1,10.6l-0.3,2.7c-0.1,0.6-0.5,1-1.3,1s-1.1-0.3-1-1l0.2-1.9l0.5-4.7c0.1-0.6,0.5-1,1.3-1
		s1.1,0.3,1,1L19.1,10.6z M6.2,10.1L4.6,3.3h-3L0,16.7h2.8l0.1-0.9L3.3,12c0.2-1.4,0.2-2.8,0.1-4l1.2,5.2h2.2L9.3,8
		C9,9.4,8.7,10.7,8.6,12l-0.2,2L8,16.7h2.8l0.4-3.6l1.2-9.9h-3L6.2,10.1z M29.5,3.3h-4.4l-0.7,5.6l-0.9,7.8h2.9l0.6-4.9h0.4l1.2,4.9
		h3.2l-1.5-5.1c1.1-0.4,1.7-1.4,1.9-2.9l0.3-2.4V6.2c0.1-1-0.1-1.7-0.6-2.2C31.4,3.5,30.6,3.3,29.5,3.3z M29.5,7.3l-0.2,1.4
		c0,0.3-0.1,0.5-0.3,0.7s-0.3,0.2-0.6,0.2h-1.1L27.5,8l0.3-2.2h1.1c0.3,0,0.5,0.1,0.6,0.2s0.2,0.3,0.1,0.6L29.5,7.3z M41.8,5.8
		L42,3.3h-6.8L35,5.5l-1.3,11.2h6.8l0.3-2.5h-3.9l0.4-3h3.4L41,8.7h-3.4l0.3-2.9C37.9,5.8,41.8,5.8,41.8,5.8z"/>
	<path fill="#00389B" d="M46.2,0l-2.3,20h40.8L87,0H46.2z M51.8,16.3v0.4H51h-2.1l1.6-13.5h2.9L51.8,16.3z M63.6,10.8l-0.7,5.9h-2.8
		c-0.4-1.4-0.7-2.7-1-3.8l0,0c-0.7-2.6-1.1-4.3-1.2-5c0.2,1,0.1,2.8-0.2,5.3l-0.1,0.5l-0.4,3.1h-2.9l0.2-1.7L56,3.3h2.9l1.2,4.5
		c0.5,1.9,0.8,3.3,1,4.3l0,0v0.1v-0.1l0,0c-0.1-1.3-0.1-3,0.2-5.4l0.4-3.4h2.9L63.6,10.8L63.6,10.8z M73,5.8h-3.7L69,8.3l-0.1,0.8
		h3.4L72,11.7h-3.4l-0.6,5h-2.9l1.6-13.5h6.6L73,5.8z M82.8,6.6L82,13.4c-0.1,1.1-0.6,1.9-1.3,2.5c-0.8,0.6-1.8,0.9-3.1,0.9
		c-1.3,0-2.3-0.3-2.9-0.9s-0.9-1.5-0.7-2.5l0.8-6.9c0-0.3,0.1-0.7,0.2-1C75.2,5,75.5,4.4,76,4c0.8-0.6,1.8-0.9,3.1-0.9
		c0.4,0,0.7,0,1,0.1l0,0c0.2,0,0.4,0.1,0.6,0.1c0.5,0.2,1,0.4,1.3,0.7C82.7,4.6,82.9,5.5,82.8,6.6z M78.9,5.7c-0.8,0-1.2,0.3-1.3,1
		l-0.8,6.6c-0.1,0.6,0.3,1,1,1c0.8,0,1.2-0.3,1.3-1l0.8-6.6C80,6.1,79.6,5.7,78.9,5.7z"/>
</g>
</svg>
