<?xml version="1.0" encoding="utf-8"?>
<!-- Generator: Adobe Illustrator 26.2.1, SVG Export Plug-In . SVG Version: 6.00 Build 0)  -->
<svg version="1.1" id="Layer_1" xmlns="http://www.w3.org/2000/svg" xmlns:xlink="http://www.w3.org/1999/xlink" x="0px" y="0px"
	 viewBox="0 0 16 16" style="enable-background:new 0 0 16 16;" xml:space="preserve">
<style type="text/css">
	.st0{fill:#FEA202;}
	.st1{fill:url(#SVGID_1_);}
</style>
<path class="st0" d="M12.2,15.4c-0.2,0-0.3,0-0.4-0.1l-3.8-2l-3.7,2c-0.1,0.1-0.3,0.1-0.4,0.1c-0.3,0-0.5-0.1-0.7-0.3
	c-0.2-0.2-0.3-0.5-0.2-0.8l0.7-4.2l-3-2.9c-0.3-0.3-0.3-0.6-0.2-1c0.1-0.3,0.4-0.6,0.8-0.6l4.2-0.6l1.8-3.8C7.3,0.8,7.6,0.6,8,0.6
	c0.4,0,0.7,0.2,0.8,0.5L10.7,5l4.2,0.6c0.4,0.1,0.6,0.3,0.8,0.6c0.1,0.3,0,0.7-0.2,1l-3.1,3l0.7,4.1c0,0.3,0,0.6-0.2,0.8
	C12.7,15.3,12.5,15.4,12.2,15.4z"/>
<radialGradient id="SVGID_1_" cx="8.0002" cy="8" r="7.0414" gradientUnits="userSpaceOnUse">
	<stop  offset="0" style="stop-color:#FFFFFF"/>
	<stop  offset="1" style="stop-color:#FFFF00"/>
</radialGradient>
<path class="st1" d="M8.4,1.4l1.9,3.8c0.1,0.1,0.2,0.2,0.3,0.2L14.8,6c0.4,0.1,0.5,0.5,0.2,0.8l-3,3c-0.1,0.1-0.2,0.2-0.1,0.4
	l0.7,4.2c0.1,0.4-0.3,0.6-0.6,0.5l-3.8-2c-0.1-0.1-0.3-0.1-0.4,0l-3.8,2c-0.3,0.2-0.7-0.1-0.6-0.5l0.7-4.2c0-0.1,0-0.3-0.1-0.4l-3-3
	C0.7,6.5,0.8,6.1,1.2,6l4.2-0.6c0.1,0,0.3-0.1,0.3-0.2l1.9-3.8C7.8,1,8.2,1,8.4,1.4z"/>
</svg>
