<?xml version="1.0" encoding="utf-8"?>
<!-- Generator: Adobe Illustrator 26.2.1, SVG Export Plug-In . SVG Version: 6.00 Build 0)  -->
<svg version="1.1" id="Layer_1" xmlns="http://www.w3.org/2000/svg" xmlns:xlink="http://www.w3.org/1999/xlink" x="0px" y="0px"
	 viewBox="0 0 10 10" style="enable-background:new 0 0 10 10;" xml:space="preserve">
<style type="text/css">
	.st0{fill:#68E028;}
</style>
<path class="st0" d="M9.7,8.6L6.9,5.8c0.4-0.6,0.6-1.3,0.6-2C7.5,1.7,5.8,0,3.8,0S0,1.7,0,3.8s1.7,3.7,3.7,3.7c0.7,0,1.4-0.2,2-0.6
	l2.8,2.8C8.7,9.9,8.9,10,9.1,10s0.4-0.1,0.6-0.2C10,9.4,10,8.9,9.7,8.6z M3.8,6.3c-1.4,0-2.5-1.1-2.5-2.5s1.1-2.5,2.5-2.5
	s2.5,1.1,2.5,2.5S5.2,6.3,3.8,6.3z"/>
</svg>
